<svg width="227" height="80" viewBox="0 0 227 80" fill="none" xmlns="http://www.w3.org/2000/svg">
<path d="M47.535 48L44.665 43.38H27.025L24.12 48H15.58L31.155 24.13H40.605L56.145 48H47.535ZM30.105 38.445H41.55L35.845 29.275L30.105 38.445Z" fill="#301D20"/>
<path d="M49.535 50L46.665 45.38H29.025L26.12 50H17.58L33.155 26.13H42.605L58.145 50H49.535ZM32.105 40.445H43.55L37.845 31.275L32.105 40.445Z" fill="#FF585F"/>
<path d="M70.68 33.39L70.65 33.42H70.68V48H65.7L65.28 45.96C62.28 47.25 58.74 48.3 55.08 48.3C49.65 48.3 46.02 46.2 46.02 40.5C46.02 34.35 50.73 32.4 57.6 32.4C62.88 32.4 67.29 32.94 70.68 33.39ZM51.69 40.29C51.69 42.72 52.92 43.62 56.19 43.62C58.8 43.62 61.8 43.05 65.01 42.12V37.35C62.49 37.11 59.55 36.96 57.03 36.96C53.49 36.96 51.69 37.89 51.69 40.29ZM73.7196 48V32.7H78.6996L79.1496 35.31C82.2696 33.69 86.1696 32.31 90.3996 32.31V37.41C86.1096 37.41 82.8996 37.92 79.3896 39.18V48H73.7196ZM91.6059 40.32C91.6059 34.74 95.4759 32.31 104.596 32.31C108.436 32.31 112.246 32.82 115.036 33.48L113.896 38.01C111.676 37.56 108.526 37.08 103.756 37.08C98.9859 37.08 97.2759 37.8 97.2759 40.32C97.2759 42.87 98.9859 43.56 103.756 43.56C108.526 43.56 111.676 43.08 113.896 42.63L115.036 47.16C112.246 47.82 108.526 48.33 104.596 48.33C95.4759 48.33 91.6059 45.87 91.6059 40.32ZM117.665 48V25.5H123.335V34.23C126.365 33.15 129.935 32.31 133.505 32.31C139.025 32.31 142.055 34.41 142.055 39.51V48H136.385V40.47C136.385 38.13 134.825 37.02 131.675 37.02C129.335 37.02 126.515 37.5 123.335 38.37V48H117.665ZM150.581 26.07V30.75H144.911V26.07H150.581ZM144.911 48V32.7H150.581V48H144.911ZM181.027 32.7L169.777 48H162.697L152.287 32.7H158.977L166.297 43.53L174.367 32.7H181.027ZM193.453 43.95C198.013 43.95 201.313 43.47 203.143 43.17L204.283 47.25C201.433 47.97 196.873 48.42 192.943 48.42C184.243 48.42 180.463 46.05 180.463 40.35C180.463 34.68 184.723 32.31 192.583 32.31C199.873 32.31 204.643 34.2 204.643 39.18C204.643 39.9 204.553 41.25 204.493 41.64H186.073C186.583 43.53 188.503 43.95 193.453 43.95ZM192.373 36.09C188.173 36.09 186.493 36.72 186.043 38.7H199.033C198.703 36.87 197.203 36.09 192.373 36.09Z" fill="#301D20"/>
<path d="M73.68 35.39L73.65 35.42H73.68V50H68.7L68.28 47.96C65.28 49.25 61.74 50.3 58.08 50.3C52.65 50.3 49.02 48.2 49.02 42.5C49.02 36.35 53.73 34.4 60.6 34.4C65.88 34.4 70.29 34.94 73.68 35.39ZM54.69 42.29C54.69 44.72 55.92 45.62 59.19 45.62C61.8 45.62 64.8 45.05 68.01 44.12V39.35C65.49 39.11 62.55 38.96 60.03 38.96C56.49 38.96 54.69 39.89 54.69 42.29ZM76.7196 50V34.7H81.6996L82.1496 37.31C85.2696 35.69 89.1696 34.31 93.3996 34.31V39.41C89.1096 39.41 85.8996 39.92 82.3896 41.18V50H76.7196ZM94.6059 42.32C94.6059 36.74 98.4759 34.31 107.596 34.31C111.436 34.31 115.246 34.82 118.036 35.48L116.896 40.01C114.676 39.56 111.526 39.08 106.756 39.08C101.986 39.08 100.276 39.8 100.276 42.32C100.276 44.87 101.986 45.56 106.756 45.56C111.526 45.56 114.676 45.08 116.896 44.63L118.036 49.16C115.246 49.82 111.526 50.33 107.596 50.33C98.4759 50.33 94.6059 47.87 94.6059 42.32ZM120.665 50V27.5H126.335V36.23C129.365 35.15 132.935 34.31 136.505 34.31C142.025 34.31 145.055 36.41 145.055 41.51V50H139.385V42.47C139.385 40.13 137.825 39.02 134.675 39.02C132.335 39.02 129.515 39.5 126.335 40.37V50H120.665ZM153.581 28.07V32.75H147.911V28.07H153.581ZM147.911 50V34.7H153.581V50H147.911ZM184.027 34.7L172.777 50H165.697L155.287 34.7H161.977L169.297 45.53L177.367 34.7H184.027ZM196.453 45.95C201.013 45.95 204.313 45.47 206.143 45.17L207.283 49.25C204.433 49.97 199.873 50.42 195.943 50.42C187.243 50.42 183.463 48.05 183.463 42.35C183.463 36.68 187.723 34.31 195.583 34.31C202.873 34.31 207.643 36.2 207.643 41.18C207.643 41.9 207.553 43.25 207.493 43.64H189.073C189.583 45.53 191.503 45.95 196.453 45.95ZM195.373 38.09C191.173 38.09 189.493 38.72 189.043 40.7H202.033C201.703 38.87 200.203 38.09 195.373 38.09Z" fill="#FF585F"/>
</svg>
